REM DIRINDEX 1\2,1\3,1\4,1\6,1\5\7,1\5\8
REM DIRNAME cjc114,folder01,folder02,folder03,folder04,folder05,folder06,folder07
TITLE ""
FILE "DB4500_5th_6C_40.mp3" MP3
  TRACK 01 AUDIO
    TITLE "0:"
    INDEX 01 00:00:00
  TRACK 02 AUDIO
    TITLE "2:cjc114_4699"
    INDEX 01 00:00:01
  TRACK 03 AUDIO
    TITLE "0:"
    INDEX 01 00:01:05
  TRACK 04 AUDIO
    TITLE "3:cjc114_4700"
    INDEX 01 00:01:21
  TRACK 05 AUDIO
    TITLE "0:"
    INDEX 01 00:02:42
  TRACK 06 AUDIO
    TITLE "4:cjc114_4701"
    INDEX 01 00:02:55
  TRACK 07 AUDIO
    TITLE "0:"
    INDEX 01 00:05:52
  TRACK 08 AUDIO
    TITLE "2:cjc114_4702"
    INDEX 01 00:06:16
  TRACK 09 AUDIO
    TITLE "0:"
    INDEX 01 00:07:13
  TRACK 10 AUDIO
    TITLE "3:cjc114_4703"
    INDEX 01 00:07:27
  TRACK 11 AUDIO
    TITLE "0:"
    INDEX 01 00:08:32
  TRACK 12 AUDIO
    TITLE "4:cjc114_4704"
    INDEX 01 00:08:46
  TRACK 13 AUDIO
    TITLE "0:"
    INDEX 01 00:11:19
  TRACK 14 AUDIO
    TITLE "2:cjc114_4705"
    INDEX 01 00:11:56
  TRACK 15 AUDIO
    TITLE "0:"
    INDEX 01 00:12:54
  TRACK 16 AUDIO
    TITLE "3:cjc114_4706"
    INDEX 01 00:12:69
  TRACK 17 AUDIO
    TITLE "0:"
    INDEX 01 00:14:11
  TRACK 18 AUDIO
    TITLE "4:cjc114_4707"
    INDEX 01 00:14:27
  TRACK 19 AUDIO
    TITLE "0:"
    INDEX 01 00:17:39
  TRACK 20 AUDIO
    TITLE "2:cjc114_4708"
    INDEX 01 00:18:01
  TRACK 21 AUDIO
    TITLE "0:"
    INDEX 01 00:19:01
  TRACK 22 AUDIO
    TITLE "3:cjc114_4709"
    INDEX 01 00:19:15
  TRACK 23 AUDIO
    TITLE "0:"
    INDEX 01 00:20:26
  TRACK 24 AUDIO
    TITLE "4:cjc114_4710"
    INDEX 01 00:20:39
  TRACK 25 AUDIO
    TITLE "0:"
    INDEX 01 00:23:12
  TRACK 26 AUDIO
    TITLE "2:cjc114_4711"
    INDEX 01 00:23:69
  TRACK 27 AUDIO
    TITLE "0:"
    INDEX 01 00:25:03
  TRACK 28 AUDIO
    TITLE "3:cjc114_4712"
    INDEX 01 00:25:25
  TRACK 29 AUDIO
    TITLE "0:"
    INDEX 01 00:26:56
  TRACK 30 AUDIO
    TITLE "4:cjc114_4713"
    INDEX 01 00:27:04
  TRACK 31 AUDIO
    TITLE "0:"
    INDEX 01 00:30:26
  TRACK 32 AUDIO
    TITLE "2:cjc114_4714"
    INDEX 01 00:30:71
  TRACK 33 AUDIO
    TITLE "0:"
    INDEX 01 00:32:23
  TRACK 34 AUDIO
    TITLE "3:cjc114_4715"
    INDEX 01 00:32:45
  TRACK 35 AUDIO
    TITLE "0:"
    INDEX 01 00:34:00
  TRACK 36 AUDIO
    TITLE "4:cjc114_4716"
    INDEX 01 00:34:24
  TRACK 37 AUDIO
    TITLE "0:"
    INDEX 01 00:38:24
  TRACK 38 AUDIO
    TITLE "2:cjc114_4717"
    INDEX 01 00:38:65
  TRACK 39 AUDIO
    TITLE "0:"
    INDEX 01 00:40:11
  TRACK 40 AUDIO
    TITLE "3:cjc114_4718"
    INDEX 01 00:40:28
  TRACK 41 AUDIO
    TITLE "0:"
    INDEX 01 00:41:47
  TRACK 42 AUDIO
    TITLE "4:cjc114_4719"
    INDEX 01 00:41:65
  TRACK 43 AUDIO
    TITLE "0:"
    INDEX 01 00:45:61
  TRACK 44 AUDIO
    TITLE "2:cjc114_4720"
    INDEX 01 00:46:33
  TRACK 45 AUDIO
    TITLE "0:"
    INDEX 01 00:47:40
  TRACK 46 AUDIO
    TITLE "3:cjc114_4721"
    INDEX 01 00:47:62
  TRACK 47 AUDIO
    TITLE "0:"
    INDEX 01 00:49:20
  TRACK 48 AUDIO
    TITLE "4:cjc114_4722"
    INDEX 01 00:49:43
  TRACK 49 AUDIO
    TITLE "0:"
    INDEX 01 00:52:18
  TRACK 50 AUDIO
    TITLE "2:cjc114_4723"
    INDEX 01 00:52:57
  TRACK 51 AUDIO
    TITLE "0:"
    INDEX 01 00:53:62
  TRACK 52 AUDIO
    TITLE "3:cjc114_4724"
    INDEX 01 00:54:07
  TRACK 53 AUDIO
    TITLE "0:"
    INDEX 01 00:56:16
  TRACK 54 AUDIO
    TITLE "4:cjc114_4725"
    INDEX 01 00:56:41
  TRACK 55 AUDIO
    TITLE "0:"
    INDEX 01 00:59:32
  TRACK 56 AUDIO
    TITLE "4:cjc114_4726"
    INDEX 01 01:00:00
  TRACK 57 AUDIO
    TITLE "0:"
    INDEX 01 01:03:49
  TRACK 58 AUDIO
    TITLE "2:cjc114_4727"
    INDEX 01 01:04:15
  TRACK 59 AUDIO
    TITLE "0:"
    INDEX 01 01:05:21
  TRACK 60 AUDIO
    TITLE "3:cjc114_4728"
    INDEX 01 01:05:42
  TRACK 61 AUDIO
    TITLE "0:"
    INDEX 01 01:06:73
  TRACK 62 AUDIO
    TITLE "4:cjc114_4729"
    INDEX 01 01:07:23
  TRACK 63 AUDIO
    TITLE "0:"
    INDEX 01 01:11:64
  TRACK 64 AUDIO
    TITLE "2:cjc114_4730"
    INDEX 01 01:12:36
  TRACK 65 AUDIO
    TITLE "0:"
    INDEX 01 01:13:38
  TRACK 66 AUDIO
    TITLE "3:cjc114_4731"
    INDEX 01 01:13:61
  TRACK 67 AUDIO
    TITLE "0:"
    INDEX 01 01:15:09
  TRACK 68 AUDIO
    TITLE "4:cjc114_4732"
    INDEX 01 01:15:31
  TRACK 69 AUDIO
    TITLE "0:"
    INDEX 01 01:18:06
  TRACK 70 AUDIO
    TITLE "2:cjc114_4733"
    INDEX 01 01:18:47
  TRACK 71 AUDIO
    TITLE "0:"
    INDEX 01 01:19:56
  TRACK 72 AUDIO
    TITLE "3:cjc114_4734"
    INDEX 01 01:20:02
  TRACK 73 AUDIO
    TITLE "0:"
    INDEX 01 01:21:16
  TRACK 74 AUDIO
    TITLE "4:cjc114_4735"
    INDEX 01 01:21:33
  TRACK 75 AUDIO
    TITLE "0:"
    INDEX 01 01:25:00
  TRACK 76 AUDIO
    TITLE "2:cjc114_4736"
    INDEX 01 01:25:45
  TRACK 77 AUDIO
    TITLE "0:"
    INDEX 01 01:26:40
  TRACK 78 AUDIO
    TITLE "3:cjc114_4737"
    INDEX 01 01:26:62
  TRACK 79 AUDIO
    TITLE "0:"
    INDEX 01 01:28:49
  TRACK 80 AUDIO
    TITLE "4:cjc114_4738"
    INDEX 01 01:28:69
  TRACK 81 AUDIO
    TITLE "0:"
    INDEX 01 01:31:28
